<svg xmlns="http://www.w3.org/2000/svg" version="1.0" width="225.000000pt" height="225.000000pt" viewBox="0 0 225.000000 225.000000" preserveAspectRatio="xMidYMid meet">
    <g transform="translate(0.000000,225.000000) scale(0.100000,-0.100000)" fill="#000000" stroke="none">
        <path d="M1065 2096 c-16 -7 -40 -24 -52 -37 -30 -33 -983 -1654 -1001 -1704 -28 -75 8 -162 81 -195 40 -19 77 -20 1032 -20 l991 0 44 23 c63 32 98 99 84 165 -7 34 -151 287 -498 877 -268 457 -497 841 -509 854 -44 48 -114 63 -172 37z m63 -968 l-3 -843 -488 -3 c-424 -2 -488 0 -493 13 -6 15 964 1675 978 1675 5 0 7 -379 6 -842z"/>
    </g>
</svg>