<svg xmlns="http://www.w3.org/2000/svg" version="1.0" width="200.000000pt" height="200.000000pt" viewBox="0 0 200.000000 200.000000" preserveAspectRatio="xMidYMid meet">
    <g transform="translate(0.000000,200.000000) scale(0.100000,-0.100000)" fill="#ffffff" stroke="none">
        <path d="M380 998 c-201 -243 -367 -445 -368 -450 -2 -4 277 -8 620 -7 l623 0 365 441 c201 243 367 445 368 450 2 4 -277 8 -620 7 l-623 0 -365 -441z m1123 -8 l-307 -370 -503 0 -503 0 243 293 c133 160 271 327 306 370 l64 77 503 0 504 0 -307 -370z"/>
    </g>
</svg>